# xmcd
#
# Track frame offsets:
#	150
#	12370
#	28143
#	43447
#	55196
#	67004
#	76762
#	90815
#	102528
#	117522
#	128412
#	139659
#	159008
#	172695
#	190845
#
# Disc length: 2738 seconds
#
# Revision: 0
# Processed by: cddbd v1.4PL0 Copyright (c) Steve Scherf et al.
# Submitted via: audiograbber 1.82.02
#
DISCID=b80ab00f
DTITLE=Johnny Cosy - I Sus Och Dus
DYEAR=2002
DGENRE=
TTITLE0=Fiffiga Nanette
TTITLE1=Röa Rosor
TTITLE2=Frottéhandduken
TTITLE3=Livet I Finnskogarna
TTITLE4=Blonda Brallis
TTITLE5=Det Lovar Jag Min Mamma
TTITLE6=Aldrig På En Söndag
TTITLE7=Jag Har Väntat Natt Och Dag
TTITLE8=Generationsklyftan
TTITLE9=Jag Är Min Fassas Far
TTITLE10=Malena
TTITLE11=Gotländsk Sommarnatt
TTITLE12=Crazy Arms
TTITLE13=Botjitta
TTITLE14=Vart Jag Går I Skogar Berg Och Dalar
EXTD=
EXTT0=
EXTT1=
EXTT2=
EXTT3=
EXTT4=
EXTT5=
EXTT6=
EXTT7=
EXTT8=
EXTT9=
EXTT10=
EXTT11=
EXTT12=
EXTT13=
EXTT14=
PLAYORDER=
